<svg width="40" height="40" viewBox="0 0 40 40" fill="none" xmlns="http://www.w3.org/2000/svg">
<path opacity="0.4" d="M28.68 0H11.34C4.56 0 0 4.76 0 11.84V28.18C0 35.24 4.56 40 11.34 40H28.68C35.46 40 40 35.24 40 28.18V11.84C40 4.76 35.46 0 28.68 0Z" fill="#686868"/>
<path d="M17.6261 26.4962C17.1781 26.4962 16.7302 26.3262 16.3882 25.9842L11.6422 21.2382C10.9582 20.5542 10.9582 19.4462 11.6422 18.7642C12.3262 18.0802 13.4322 18.0782 14.1162 18.7622L17.6261 22.2722L25.8821 14.0162C26.5661 13.3322 27.6721 13.3322 28.3561 14.0162C29.0401 14.7002 29.0401 15.8082 28.3561 16.4922L18.8641 25.9842C18.5221 26.3262 18.0741 26.4962 17.6261 26.4962Z" fill="white"/>
</svg>
